<?xml version="1.0" encoding="utf-8"?>
<!-- Generator: Adobe Illustrator 16.0.0, SVG Export Plug-In . SVG Version: 6.00 Build 0)  -->
<!DOCTYPE svg PUBLIC "-//W3C//DTD SVG 1.1//EN" "http://www.w3.org/Graphics/SVG/1.1/DTD/svg11.dtd">
<svg version="1.1" id="Layer_1" xmlns="http://www.w3.org/2000/svg" xmlns:xlink="http://www.w3.org/1999/xlink" x="0px" y="0px"
	 width="21px" height="21px" viewBox="0 0 21 21" enable-background="new 0 0 21 21" xml:space="preserve">
<path fill="#8A94A7" d="M0.503,10.613c-0.087-4.634,3.1-9.205,8.072-10.126c4.104-0.756,7.481,0.63,9.963,3.98
	c3.426,4.626,2.228,11.377-2.517,14.569c-5.675,3.813-13.462,0.821-15.19-5.834C0.598,12.305,0.479,11.398,0.503,10.613
	 M19.689,10.469c0-0.292,0-0.584-0.002-0.876c0-0.067-0.01-0.136-0.018-0.204c-0.26-2.045-1.059-3.836-2.467-5.356
	c-2.562-2.771-6.41-3.715-9.868-2.412C2.53,3.433,0.075,8.774,1.792,13.682c1.649,4.709,6.573,7.283,11.285,5.887
	C17.163,18.355,19.818,14.409,19.689,10.469"/>
<path fill="#8A94A7" d="M11.868,11.945c0,0.132,0,0.234,0,0.332c-0.007,2.253-0.015,4.502-0.009,6.754
	c0,0.248-0.076,0.342-0.315,0.342c-0.66,0.005-1.322,0.035-1.983,0.018c-0.372-0.013-0.373-0.048-0.376-0.42
	c-0.017-2.225-0.032-4.447-0.048-6.673c-0.001-0.104,0-0.207,0-0.35c-0.113,0-0.211,0-0.311,0c-2.19-0.007-4.381-0.015-6.571-0.009
	c-0.271,0.002-0.366-0.084-0.366-0.34c0.003-0.677,0-1.354-0.007-2.033C1.878,9.301,1.998,9.235,2.257,9.236
	C4.438,9.237,6.62,9.224,8.802,9.215c0.101,0,0.203,0,0.334,0c0-0.123-0.001-0.223,0-0.324c0.008-2.276,0.023-4.553,0.024-6.83
	c0-0.231,0.064-0.329,0.296-0.328c0.677,0.004,1.357-0.004,2.034,0c0.115,0,0.232,0.04,0.363,0.065v7.444h0.317
	c2.216,0,4.433,0.001,6.649-0.001c0.156,0,0.298,0.002,0.298,0.212c-0.003,0.755-0.005,1.509-0.011,2.265
	c0,0.066-0.03,0.134-0.055,0.228H11.868z"/>
<path fill="#8A94A7" d="M12.667,1.955c1.812,0.507,3.267,1.447,4.47,2.89c-1.513,0.875-2.977,1.723-4.47,2.589V1.955z"/>
<path fill="#8A94A7" d="M8.336,1.966v5.472C6.829,6.565,5.358,5.717,3.863,4.853C5.068,3.435,6.509,2.46,8.336,1.966"/>
<path fill="#8A94A7" d="M12.65,19.163V13.72c1.5,0.863,2.957,1.701,4.457,2.566C15.93,17.732,14.448,18.667,12.65,19.163"/>
<path fill="#8A94A7" d="M8.348,13.716v5.443C6.55,18.661,5.1,17.713,3.885,16.282C5.371,15.428,6.829,14.587,8.348,13.716"/>
<path fill="#8A94A7" d="M12.73,8.383c0.068-0.047,0.136-0.098,0.203-0.139c1.483-0.863,2.969-1.717,4.445-2.588
	c0.219-0.128,0.337-0.092,0.441,0.12c0.068,0.136,0.147,0.269,0.234,0.427c-0.084,0.061-0.154,0.12-0.232,0.165
	c-1.139,0.668-2.275,1.337-3.418,2.001c-0.07,0.042-0.158,0.073-0.238,0.075c-0.473,0.007-0.941,0.002-1.414,0.002
	C12.747,8.426,12.738,8.405,12.73,8.383"/>
<path fill="#8A94A7" d="M3.366,15.609c-0.15-0.258-0.279-0.479-0.421-0.725c0.095-0.061,0.169-0.113,0.249-0.156
	c1.095-0.641,2.189-1.278,3.289-1.912c0.097-0.06,0.221-0.094,0.334-0.098c0.435-0.009,0.868-0.003,1.302-0.003
	c0.01,0.033,0.02,0.066,0.029,0.101C6.566,13.742,4.983,14.665,3.366,15.609"/>
<path fill="#8A94A7" d="M6.646,8.436c-0.486,0-0.975,0.008-1.461-0.008C5.066,8.424,4.94,8.354,4.832,8.292
	C4.146,7.901,3.469,7.499,2.78,7.114c-0.184-0.102-0.199-0.2-0.106-0.364c0.091-0.163,0.171-0.333,0.267-0.522
	c1.256,0.725,2.491,1.435,3.724,2.147C6.658,8.396,6.652,8.415,6.646,8.436"/>
<path fill="#8A94A7" d="M18.441,14.145c-0.121,0.254-0.234,0.489-0.369,0.769c-1.225-0.705-2.426-1.397-3.627-2.093
	c0.005-0.021,0.008-0.043,0.011-0.067c0.077-0.012,0.151-0.022,0.229-0.03c0.805-0.089,1.547,0.038,2.229,0.529
	C17.382,13.587,17.912,13.84,18.441,14.145"/>
<path fill="#8A94A7" d="M18.732,7.716c0.066,0.26,0.119,0.473,0.178,0.711h-1.293l-0.021-0.059
	C17.958,8.16,18.32,7.952,18.732,7.716"/>
<path fill="#8A94A7" d="M18.719,13.434c-0.396-0.229-0.74-0.426-1.086-0.623c0.006-0.021,0.01-0.039,0.012-0.059h1.254
	C18.843,12.957,18.789,13.166,18.719,13.434"/>
<path fill="#8A94A7" d="M3.37,8.427H2.145C2.137,8.383,2.124,8.358,2.126,8.336C2.224,7.723,2.245,7.713,2.78,8.014
	c0.208,0.116,0.409,0.24,0.615,0.36C3.387,8.393,3.378,8.409,3.37,8.427"/>
<path fill="#8A94A7" d="M3.33,12.816c-0.335,0.194-0.67,0.391-1.042,0.607c-0.058-0.238-0.104-0.436-0.161-0.672h1.18
	C3.313,12.773,3.322,12.793,3.33,12.816"/>
</svg>
