<?xml version="1.0" encoding="utf-8"?>
<!-- Generator: Adobe Illustrator 16.0.0, SVG Export Plug-In . SVG Version: 6.00 Build 0)  -->
<!DOCTYPE svg PUBLIC "-//W3C//DTD SVG 1.1//EN" "http://www.w3.org/Graphics/SVG/1.1/DTD/svg11.dtd">
<svg version="1.1" id="Layer_1" xmlns="http://www.w3.org/2000/svg" xmlns:xlink="http://www.w3.org/1999/xlink" x="0px" y="0px"
	 width="20px" height="20px" viewBox="0 0 20 20" enable-background="new 0 0 20 20" xml:space="preserve">
<path fill="#FFFFFF" d="M8.818,6.938c0-0.028,0.002-0.055,0.002-0.082c0.014-0.014,0.009-0.032,0.01-0.048
	c0-0.02-0.003-0.039,0.009-0.057c0-0.004,0.001-0.008,0.002-0.013c0.014-0.013,0.01-0.032,0.01-0.048
	c0.001-0.02-0.004-0.039,0.009-0.057C8.86,6.629,8.86,6.622,8.861,6.615c0.008-0.008,0.011-0.017,0.011-0.028
	c0-0.012,0-0.024,0.009-0.034c0-0.007,0-0.013,0.001-0.02c0.013-0.011,0.011-0.026,0.011-0.04c0-0.014,0-0.026,0.008-0.037l0.002,0
	c0.01-0.008,0.012-0.018,0.01-0.029c0.002-0.019-0.003-0.038,0.01-0.054l0.001,0.001c0.009-0.007,0.012-0.017,0.012-0.028
	c0-0.012,0-0.024,0.008-0.034l0,0c0.007-0.005,0.012-0.011,0.013-0.019c0.001-0.006,0.004-0.011,0.008-0.016
	c0-0.006,0-0.014,0.002-0.02c0.007-0.006,0.012-0.016,0.012-0.025C8.978,6.226,8.979,6.22,8.983,6.215
	c0.001-0.006,0.001-0.012,0.002-0.019C8.99,6.188,8.999,6.182,9.003,6.174c0.002-0.007,0.002-0.012,0.002-0.02
	c0.012-0.011,0.002-0.03,0.014-0.042H9.02C9.025,6.107,9.031,6.1,9.029,6.09c0.002-0.012,0-0.023,0.01-0.033
	c0.016-0.01,0.009-0.03,0.021-0.042l0,0c0.016-0.009,0.009-0.03,0.021-0.041C9.087,5.969,9.093,5.96,9.099,5.953
	c0.009-0.006,0.017-0.012,0.015-0.023C9.115,5.923,9.117,5.917,9.12,5.913C9.122,5.906,9.122,5.9,9.123,5.893
	c0.004-0.008,0.016-0.007,0.02-0.015l0,0C9.15,5.872,9.155,5.864,9.155,5.854c0.001-0.007,0.003-0.012,0.008-0.016
	C9.17,5.831,9.177,5.824,9.184,5.816v0C9.19,5.81,9.197,5.803,9.204,5.795c0-0.007,0-0.012,0.002-0.019
	c0.005-0.008,0.013-0.014,0.019-0.022C9.233,5.75,9.23,5.739,9.236,5.732C9.245,5.727,9.251,5.72,9.251,5.709
	C9.253,5.703,9.255,5.697,9.26,5.693C9.271,5.678,9.283,5.666,9.3,5.659h0.001c0.007-0.007,0.014-0.014,0.021-0.021
	c0-0.006,0-0.013,0.002-0.019C9.327,5.61,9.335,5.604,9.342,5.596C9.35,5.59,9.356,5.583,9.363,5.576
	C9.37,5.569,9.377,5.562,9.382,5.555l0.002,0.001c0.007-0.007,0.014-0.014,0.021-0.021c0.007-0.006,0.014-0.013,0.02-0.021
	c0.008-0.005,0.008-0.015,0.015-0.021c0.007-0.006,0.014-0.014,0.021-0.02v0C9.466,5.466,9.474,5.459,9.48,5.452
	c0.005-0.007,0.015-0.006,0.021-0.013H9.499c0.009-0.006,0.016-0.014,0.022-0.021c0.007-0.006,0.013-0.013,0.021-0.02
	c0.004-0.005,0.01-0.007,0.017-0.009c0.01,0,0.018-0.004,0.024-0.013v0C9.59,5.37,9.598,5.362,9.604,5.356
	c0.008-0.007,0.013-0.014,0.021-0.021c0.009-0.011,0.026-0.009,0.033-0.021C9.665,5.307,9.673,5.3,9.68,5.294H9.679
	C9.684,5.289,9.69,5.287,9.695,5.285c0.011,0,0.02-0.004,0.026-0.011c0.021,0.008,0.018-0.03,0.039-0.022
	c0.006-0.006,0.017-0.006,0.021-0.013V5.238C9.79,5.231,9.796,5.225,9.805,5.219c0.006,0,0.013-0.001,0.019-0.001
	c0.008-0.006,0.014-0.014,0.022-0.02c0.005,0,0.013-0.001,0.019-0.001C9.872,5.193,9.871,5.182,9.88,5.178
	c0.005-0.001,0.013-0.001,0.019-0.002C9.907,5.17,9.913,5.163,9.92,5.156v0c0.005-0.004,0.01-0.006,0.017-0.008
	c0.013,0.001,0.019-0.008,0.025-0.016c0.005-0.002,0.012-0.003,0.017-0.004c0.013,0.001,0.019-0.01,0.026-0.016
	c0.005-0.003,0.011-0.004,0.017-0.005c0.016,0,0.031,0.002,0.041-0.013c0.004-0.003,0.008-0.005,0.013-0.006
	c0.01-0.001,0.019-0.006,0.024-0.013l-0.001-0.001c0.005-0.004,0.011-0.007,0.017-0.007c0.011-0.001,0.019-0.005,0.025-0.013v0
	c0.01-0.008,0.021-0.008,0.034-0.008c0.011,0,0.021-0.002,0.027-0.011c0.008,0,0.014-0.001,0.02-0.001
	c0.013-0.012,0.031-0.001,0.043-0.013V5.018c0.009-0.008,0.019-0.009,0.03-0.008c0.016-0.001,0.033,0.004,0.045-0.012h-0.001
	c0.012-0.009,0.025-0.01,0.038-0.009c0.016-0.001,0.033,0.004,0.046-0.011l-0.001-0.001c0.018-0.013,0.036-0.007,0.055-0.008
	c0.01,0.001,0.021-0.001,0.028-0.011c0.012,0,0.023-0.001,0.034-0.001c0.01-0.008,0.023-0.008,0.035-0.008
	c0.012,0,0.021-0.002,0.028-0.011c0.014,0,0.027-0.001,0.039-0.002c0.018-0.013,0.038-0.008,0.057-0.008
	c0.015-0.001,0.03,0.002,0.042-0.01c0.02,0,0.041-0.001,0.061-0.002c0.019-0.014,0.041-0.008,0.063-0.009c0.021,0,0.042,0,0.064,0
	c0.177,0,0.354,0,0.532,0c0.046,0,0.091,0,0.138,0c0.028,0,0.057,0,0.085,0c0.034,0.003,0.069-0.009,0.103,0.009
	c0.025,0,0.051,0.001,0.076,0.002c0.018,0.016,0.038,0.009,0.059,0.009c0.021,0.001,0.043,0,0.064,0.001
	c0.013-0.001,0.025-0.001,0.037,0c0.026-0.001,0.054-0.001,0.081,0c0.021,0,0.043-0.006,0.062,0.008
	c0.032,0,0.063,0.001,0.096,0.002c0.021,0.017,0.045,0.007,0.068,0.01c0.025,0.002,0.053-0.007,0.077,0.009
	c0.019,0,0.036,0.001,0.054,0.001C12.473,4.969,12.472,4.985,12.472,5v1.459c0,0.014,0,0.028-0.009,0.04
	c-0.015,0.013-0.034,0.009-0.052,0.009c-0.322,0-0.644,0-0.965,0c-0.016,0-0.032-0.003-0.046,0.009
	c-0.066-0.002-0.132,0.019-0.199,0.016c-0.015,0.011-0.03,0.009-0.047,0.009c-0.012-0.001-0.021,0.001-0.029,0.01
	c-0.007,0-0.014,0.001-0.02,0.001c-0.012,0.011-0.031,0.006-0.043,0.019c-0.006,0.001-0.014,0.001-0.02,0.001
	c-0.011,0.012-0.031,0.005-0.042,0.021h0.001C10.99,6.607,10.97,6.601,10.96,6.615c-0.01,0.01-0.026,0.008-0.035,0.021l0.001,0
	c-0.005,0.004-0.01,0.006-0.016,0.008c-0.012,0-0.019,0.006-0.024,0.015c-0.008,0.005-0.017,0.01-0.021,0.018
	c-0.007,0.006-0.015,0.014-0.022,0.021h0.001c-0.007,0.007-0.014,0.014-0.021,0.021c-0.008,0.007-0.015,0.014-0.021,0.021
	c-0.005,0.007-0.015,0.007-0.021,0.014h0.001c-0.008,0.007-0.014,0.013-0.021,0.021c-0.006,0.007-0.013,0.013-0.02,0.021v0
	c-0.007,0.007-0.015,0.014-0.021,0.021c-0.014,0.011-0.002,0.03-0.014,0.042h-0.001c-0.008,0.006-0.012,0.015-0.013,0.025
	c-0.001,0.007-0.004,0.012-0.007,0.017l-0.002,0c-0.007,0.006-0.012,0.016-0.012,0.025c-0.001,0.006-0.003,0.012-0.007,0.017
	c-0.001,0.003-0.002,0.007-0.002,0.012c-0.005,0.008-0.014,0.014-0.019,0.022C10.644,6.988,10.643,7,10.642,7.014
	c-0.009,0.008-0.011,0.019-0.009,0.03c-0.001,0.019,0.003,0.037-0.01,0.054V7.097c-0.021,0.025-0.007,0.055-0.012,0.082
	c-0.002,0.032,0.01,0.067-0.009,0.098c-0.001,0.007-0.001,0.013-0.002,0.02c-0.011,0.012-0.009,0.026-0.009,0.04v1.183
	c0,0.014-0.002,0.028,0.011,0.039V8.556c0.006,0.008,0.014,0.014,0.021,0.021c0.014,0.016,0.031,0.011,0.048,0.011
	c0.572,0,1.143,0,1.714,0c0.019,0,0.038-0.004,0.055,0.006c0.018,0.02,0.009,0.043,0.011,0.065c0,0.046,0,0.092,0,0.137
	c0,0.015,0.001,0.03-0.009,0.042C12.44,8.93,12.44,9.021,12.439,9.112c-0.015,0.034,0,0.07-0.01,0.104
	c-0.021,0.019-0.012,0.044-0.014,0.068c0,0.03,0,0.062,0,0.092c0,0.035,0,0.068,0,0.103c0,0.041,0,0.08,0,0.12
	c0,0.014,0,0.027-0.01,0.039c0,0.021-0.001,0.041-0.002,0.061c-0.013,0.012-0.009,0.027-0.009,0.041c-0.001,0.033,0,0.067-0.001,0.1
	c0.001,0.033,0.001,0.067,0,0.101c-0.003,0.032,0.009,0.065-0.009,0.096c-0.001,0.021-0.001,0.042-0.001,0.062
	c-0.019,0.023-0.009,0.051-0.011,0.078c0,0.014,0,0.026,0,0.041c-0.001,0.02,0.006,0.042-0.01,0.06c-0.105,0-0.209,0-0.313,0
	c-0.476,0-0.951,0-1.428,0c-0.007,0.007-0.015,0.014-0.021,0.021c-0.017,0.014-0.01,0.034-0.01,0.052
	c-0.001,0.838-0.001,1.679-0.001,2.518c0,0.13,0.001,0.26,0,0.391v0.558v1.024v0.213c0,0.014,0.002,0.029-0.011,0.042
	c-0.01,0-0.018,0-0.027,0H8.847c-0.01,0-0.019,0-0.028,0c-0.012-0.013-0.01-0.028-0.01-0.042c0-0.6,0-1.197,0-1.795
	c0-0.962,0-1.926,0-2.888c0-0.018,0.005-0.037-0.009-0.052c-0.005-0.029-0.02-0.042-0.052-0.042c-0.389,0-0.778,0-1.168,0
	c-0.014,0-0.028,0-0.042-0.001c-0.012-0.011-0.01-0.027-0.01-0.041V8.637c0-0.014-0.001-0.028,0.008-0.041
	C7.552,8.584,7.57,8.588,7.588,8.588c0.383,0,0.765,0,1.148,0c0.017,0,0.034,0.005,0.048-0.011c0.007-0.005,0.007-0.015,0.014-0.021
	v0.001c0.016-0.014,0.011-0.033,0.011-0.049c0-0.46,0-0.919,0-1.38c0-0.016,0-0.032,0-0.048c0-0.022,0-0.044,0-0.065
	C8.812,6.989,8.802,6.961,8.818,6.938"/>
<path fill="#FFFFFF" d="M10.001,0.53c-5.579,0-10.047,4.848-9.411,10.552c0.484,4.339,3.991,7.844,8.327,8.328
	c5.706,0.637,10.554-3.831,10.554-9.409C19.472,4.778,15.223,0.53,10.001,0.53 M10.001,20C4.11,20-0.607,14.88,0.064,8.857
	c0.511-4.581,4.213-8.283,8.794-8.793C14.881-0.607,20,4.11,20,10.001C20,15.515,15.515,20,10.001,20"/>
</svg>
