<?xml version="1.0" encoding="utf-8"?>
<!-- Generator: Adobe Illustrator 16.0.0, SVG Export Plug-In . SVG Version: 6.00 Build 0)  -->
<!DOCTYPE svg PUBLIC "-//W3C//DTD SVG 1.1//EN" "http://www.w3.org/Graphics/SVG/1.1/DTD/svg11.dtd">
<svg version="1.1" id="Layer_1" xmlns="http://www.w3.org/2000/svg" xmlns:xlink="http://www.w3.org/1999/xlink" x="0px" y="0px"
	 width="129.728px" height="129.728px" viewBox="0 0 129.728 129.728" enable-background="new 0 0 129.728 129.728"
	 xml:space="preserve">
<g>
	<path d="M71.936,64.864l56.328-56.328c1.952-1.953,1.952-5.119,0-7.072c-1.953-1.952-5.118-1.952-7.071,0L64.864,57.793
		L8.536,1.464c-1.953-1.951-5.119-1.951-7.072,0c-1.952,1.953-1.952,5.119,0,7.072l56.328,56.328L1.464,121.192
		c-1.952,1.953-1.952,5.119,0,7.072c0.977,0.976,2.256,1.464,3.536,1.464c1.28,0,2.559-0.488,3.536-1.464l56.328-56.329
		l56.328,56.329c0.976,0.976,2.256,1.464,3.535,1.464s2.56-0.488,3.536-1.464c1.952-1.953,1.952-5.119,0-7.072L71.936,64.864z"/>
</g>
</svg>
