<?xml version="1.0" encoding="utf-8"?>
<!-- Generator: Adobe Illustrator 16.0.0, SVG Export Plug-In . SVG Version: 6.00 Build 0)  -->
<!DOCTYPE svg PUBLIC "-//W3C//DTD SVG 1.1//EN" "http://www.w3.org/Graphics/SVG/1.1/DTD/svg11.dtd">
<svg version="1.1" id="Layer_1" xmlns="http://www.w3.org/2000/svg" xmlns:xlink="http://www.w3.org/1999/xlink" x="0px" y="0px"
	 width="21px" height="21px" viewBox="0 0 21 21" enable-background="new 0 0 21 21" xml:space="preserve">
<path fill="#FFFFFF" d="M0.503,10.612c-0.087-4.633,3.1-9.205,8.072-10.125c4.103-0.758,7.481,0.629,9.962,3.979
	c3.427,4.626,2.229,11.377-2.518,14.569C10.346,22.85,2.56,19.857,0.832,13.201C0.599,12.305,0.479,11.398,0.503,10.612
	 M19.689,10.469c0-0.292,0.002-0.584-0.002-0.876c0-0.067-0.008-0.136-0.019-0.204c-0.26-2.045-1.06-3.836-2.466-5.355
	c-2.562-2.771-6.411-3.715-9.868-2.412C2.531,3.434,0.076,8.776,1.793,13.68c1.649,4.713,6.573,7.287,11.284,5.889
	C17.162,18.355,19.82,14.41,19.689,10.469"/>
<g>
	<g>
		<g>
			<defs>
				<path id="SVGID_1_" d="M7.544,2.126C3.01,3.837,0.695,8.876,2.313,13.504c1.557,4.445,6.204,6.875,10.647,5.557
					c3.853-1.146,6.362-4.867,6.238-8.582c0-0.277,0.001-0.554,0-0.828L19.18,9.456c-0.244-1.929-0.998-3.62-2.328-5.056
					c-1.694-1.834-3.988-2.818-6.333-2.818C9.523,1.581,8.518,1.758,7.544,2.126"/>
			</defs>
			<clipPath id="SVGID_2_">
				<use xlink:href="#SVGID_1_"  overflow="visible"/>
			</clipPath>
			<rect x="13.423" y="1.732" clip-path="url(#SVGID_2_)" fill="#FFFFFF" width="5.845" height="17.533"/>
		</g>
	</g>
	<g>
		<g>
			<defs>
				<path id="SVGID_3_" d="M7.544,2.126C3.01,3.837,0.695,8.876,2.313,13.504c1.557,4.445,6.204,6.875,10.647,5.557
					c3.853-1.146,6.362-4.867,6.238-8.582c0-0.277,0.001-0.554,0-0.828L19.18,9.456c-0.244-1.929-0.998-3.62-2.328-5.056
					c-1.694-1.834-3.988-2.818-6.333-2.818C9.523,1.581,8.518,1.758,7.544,2.126"/>
			</defs>
			<clipPath id="SVGID_4_">
				<use xlink:href="#SVGID_3_"  overflow="visible"/>
			</clipPath>
			<rect x="1.733" y="1.732" clip-path="url(#SVGID_4_)" fill="#FFFFFF" width="5.845" height="17.533"/>
		</g>
	</g>
</g>
</svg>
