<?xml version="1.0" encoding="utf-8"?>
<!-- Generator: Adobe Illustrator 16.0.0, SVG Export Plug-In . SVG Version: 6.00 Build 0)  -->
<!DOCTYPE svg PUBLIC "-//W3C//DTD SVG 1.1//EN" "http://www.w3.org/Graphics/SVG/1.1/DTD/svg11.dtd">
<svg version="1.1" id="Layer_1" xmlns="http://www.w3.org/2000/svg" xmlns:xlink="http://www.w3.org/1999/xlink" x="0px" y="0px"
	 width="20px" height="20px" viewBox="0 0 20 20" enable-background="new 0 0 20 20" xml:space="preserve">
<g>
	<path fill="#FFFFFF" d="M7.865,10.721c-0.235-0.333-0.519-0.646-0.368-1.065C7.122,9.603,6.779,9.586,6.455,9.502
		c-0.729-0.188-1.23-0.812-1.298-1.563C5.04,6.658,5.682,5.773,7.001,5.436C7.31,5.356,7.638,5.321,7.958,5.313
		c0.739-0.018,1.479-0.006,2.221-0.006h0.27c0.006,0.026,0.012,0.052,0.019,0.078c-0.291,0.352-0.777,0.169-1.166,0.368
		c0.424,0.225,0.649,0.578,0.717,1.025c0.131,0.864-0.003,1.641-0.754,2.206c-0.126,0.095-0.243,0.202-0.36,0.308
		c-0.267,0.247-0.286,0.474-0.028,0.724c0.261,0.255,0.542,0.491,0.824,0.722c1.373,1.123,0.87,3.093-0.657,3.654
		c-1.089,0.398-2.202,0.413-3.287,0c-1.134-0.432-1.531-1.71-0.851-2.635c0.373-0.507,0.929-0.716,1.513-0.836
		C6.87,10.829,7.334,10.792,7.865,10.721 M7.65,11.199c-0.518,0.006-1.082,0.163-1.538,0.602c-0.558,0.538-0.516,1.265,0.091,1.745
		c0.812,0.646,2.269,0.581,3.02-0.133c0.575-0.548,0.537-1.301-0.095-1.782C8.723,11.322,8.255,11.202,7.65,11.199 M8.866,7.73
		C8.81,7.069,8.553,6.484,8.094,6.08C7.553,5.604,6.869,5.709,6.537,6.316C6.084,7.142,6.478,8.487,7.305,8.94
		c0.492,0.271,1.04,0.132,1.297-0.371C8.732,8.311,8.78,8.011,8.866,7.73"/>
	<polygon fill="#FFFFFF" points="13.042,7.128 13.042,5.325 13.616,5.325 13.616,7.108 15.43,7.108 15.43,7.678 13.625,7.678 
		13.625,9.489 13.042,9.489 13.042,7.682 11.215,7.682 11.215,7.128 	"/>
	<path fill="#FFFFFF" d="M10,0.529c-5.579,0-10.047,4.849-9.41,10.553c0.483,4.339,3.99,7.844,8.327,8.328
		c5.705,0.637,10.554-3.831,10.554-9.41C19.471,4.777,15.223,0.529,10,0.529 M10,20C4.109,20-0.608,14.88,0.063,8.857
		c0.511-4.581,4.213-8.282,8.793-8.793C14.88-0.608,20,4.109,20,10C20,15.515,15.514,20,10,20"/>
</g>
</svg>
