<?xml version="1.0" encoding="utf-8"?>
<!-- Generator: Adobe Illustrator 16.0.0, SVG Export Plug-In . SVG Version: 6.00 Build 0)  -->
<!DOCTYPE svg PUBLIC "-//W3C//DTD SVG 1.1//EN" "http://www.w3.org/Graphics/SVG/1.1/DTD/svg11.dtd">
<svg version="1.1" id="Layer_1" xmlns="http://www.w3.org/2000/svg" xmlns:xlink="http://www.w3.org/1999/xlink" x="0px" y="0px"
	 width="21px" height="16px" viewBox="0 0 21 16" enable-background="new 0 0 21 16" xml:space="preserve">
<path fill="#8A94A7" d="M10.499,3.256c0.59,0.485,1.17,0.962,1.75,1.44c0.912,0.753,1.827,1.507,2.739,2.26
	c0.857,0.708,1.716,1.415,2.572,2.118c0.072,0.06,0.088,0.129,0.088,0.213c-0.002,1.124-0.002,2.245-0.002,3.368
	c0,0.808,0,1.614,0.002,2.424c0,0.31-0.1,0.571-0.369,0.735c-0.118,0.071-0.266,0.129-0.4,0.129c-1.216,0.013-2.431,0.01-3.645,0.01
	c-0.338,0-0.676,0-1.014,0h-0.129v-4.749h-3.18v4.743c-0.047,0.003-0.085,0.006-0.12,0.006c-1.527,0-3.052-0.008-4.579,0.006
	c-0.479,0.002-0.79-0.34-0.842-0.643c-0.013-0.077-0.016-0.154-0.016-0.231c0-1.933,0-3.86-0.001-5.792
	c0-0.096,0.019-0.168,0.102-0.236C4.54,8.17,5.618,7.278,6.698,6.388c1.122-0.926,2.245-1.85,3.367-2.775
	C10.207,3.494,10.35,3.378,10.499,3.256"/>
<path fill="#8A94A7" d="M10.497,2.165c-0.554,0.461-1.1,0.917-1.646,1.372C7.663,4.528,6.473,5.518,5.286,6.508
	c-1.094,0.913-2.19,1.826-3.283,2.74C1.731,9.477,1.518,9.459,1.292,9.188C1.242,9.129,1.19,9.07,1.141,9.01
	C0.96,8.794,0.778,8.581,0.6,8.361C0.448,8.174,0.472,7.934,0.655,7.78c1.516-1.263,3.032-2.526,4.548-3.789
	c1.23-1.023,2.459-2.047,3.687-3.072c0.222-0.185,0.442-0.373,0.667-0.554c0.559-0.452,1.375-0.43,1.942,0.046
	c0.963,0.808,1.931,1.616,2.896,2.422c0.019,0.015,0.037,0.025,0.076,0.052c0-0.054,0-0.09,0-0.129c0-0.736,0-1.474,0-2.211
	c0-0.331,0.135-0.466,0.463-0.466c0.756,0,1.512,0,2.269,0c0.291,0,0.437,0.142,0.446,0.432c0.002,0.034,0,0.066,0,0.101
	c0,1.604,0.002,3.209,0,4.812c0,0.087,0.026,0.141,0.094,0.195c0.857,0.71,1.714,1.422,2.57,2.136
	c0.235,0.196,0.248,0.418,0.051,0.654c-0.217,0.255-0.432,0.509-0.641,0.768c-0.121,0.147-0.256,0.267-0.464,0.216
	c-0.071-0.017-0.146-0.053-0.204-0.1c-1.686-1.402-3.369-2.805-5.052-4.208c-1.14-0.949-2.274-1.898-3.41-2.846
	C10.564,2.214,10.534,2.193,10.497,2.165"/>
</svg>
