<?xml version="1.0" encoding="utf-8"?>
<!-- Generator: Adobe Illustrator 16.0.0, SVG Export Plug-In . SVG Version: 6.00 Build 0)  -->
<!DOCTYPE svg PUBLIC "-//W3C//DTD SVG 1.1//EN" "http://www.w3.org/Graphics/SVG/1.1/DTD/svg11.dtd">
<svg version="1.1" id="Layer_1" xmlns="http://www.w3.org/2000/svg" xmlns:xlink="http://www.w3.org/1999/xlink" x="0px" y="0px"
	 width="20px" height="20px" viewBox="0 0 20 20" enable-background="new 0 0 20 20" xml:space="preserve">
<g>
	<path fill="#FFFFFF" d="M4.959,13.96V6.037c0.002-0.01,0.005-0.02,0.007-0.03c0.046-0.479,0.396-0.89,0.864-1.009
		C5.898,4.98,5.968,4.971,6.037,4.957h7.933c0.028,0.006,0.059,0.011,0.088,0.016c0.561,0.083,0.984,0.572,0.984,1.14
		c0,2.592,0,5.185,0,7.778c0,0.047-0.002,0.094-0.009,0.141c-0.075,0.59-0.593,1.012-1.153,1.012
		c-2.587-0.003-5.175-0.001-7.762-0.001c-0.527,0-0.99-0.36-1.12-0.87C4.98,14.104,4.972,14.03,4.959,13.96 M13.005,9.228
		c0.17,0.678,0.126,1.339-0.146,1.981c-0.272,0.643-0.714,1.139-1.318,1.487c-1.016,0.584-2.281,0.539-3.256-0.11
		c-0.489-0.326-0.86-0.758-1.104-1.294c-0.303-0.665-0.361-1.354-0.182-2.063H6.124v0.044c0,1.399,0,2.799,0.001,4.198
		c0,0.241,0.163,0.405,0.405,0.405c2.313,0.001,4.627,0.001,6.941,0c0.032,0,0.063,0,0.094-0.007c0.194-0.039,0.313-0.191,0.313-0.4
		c0-1.398,0-2.798,0-4.198c0-0.014,0-0.028,0-0.043H13.005z M8.063,10.001c0,1.069,0.866,1.936,1.936,1.938
		c1.073,0,1.938-0.861,1.94-1.935c0.001-1.074-0.866-1.941-1.938-1.941C8.932,8.063,8.063,8.932,8.063,10.001 M11.942,7.088v0.571
		c0,0.003,0,0.006,0,0.008c0.002,0.228,0.169,0.395,0.396,0.396c0.38,0,0.762,0,1.142,0c0.23-0.001,0.397-0.167,0.397-0.397
		c0.002-0.381,0.002-0.761,0-1.142c0-0.233-0.167-0.398-0.399-0.399c-0.378,0-0.757,0-1.135,0c-0.235,0-0.4,0.166-0.401,0.401
		C11.942,6.713,11.942,6.9,11.942,7.088"/>
	<path fill="#FFFFFF" d="M10,0.53c-5.578,0-10.046,4.848-9.409,10.552c0.483,4.339,3.989,7.844,8.326,8.328
		c5.706,0.637,10.555-3.831,10.555-9.409C19.472,4.778,15.223,0.53,10,0.53 M10,20C4.109,20-0.607,14.88,0.064,8.857
		c0.511-4.581,4.213-8.282,8.792-8.793C14.88-0.607,20,4.11,20,10.001C20,15.515,15.515,20,10,20"/>
</g>
</svg>
