<?xml version="1.0" encoding="utf-8"?>
<!-- Generator: Adobe Illustrator 16.0.0, SVG Export Plug-In . SVG Version: 6.00 Build 0)  -->
<!DOCTYPE svg PUBLIC "-//W3C//DTD SVG 1.1//EN" "http://www.w3.org/Graphics/SVG/1.1/DTD/svg11.dtd">
<svg version="1.1" id="Layer_1" xmlns="http://www.w3.org/2000/svg" xmlns:xlink="http://www.w3.org/1999/xlink" x="0px" y="0px"
	 width="26.667px" height="32.833px" viewBox="0 0 26.667 32.833" enable-background="new 0 0 26.667 32.833" xml:space="preserve">
<g>
	<path fill="#FFFFFF" d="M25.107,25.051c0.072,0,0.144,0,0.224,0c0-2.602,0-5.188,0-7.789c-0.068-0.005-0.134-0.012-0.2-0.012
		c-2.044-0.001-4.088-0.001-6.132-0.001c-0.212,0-0.212,0-0.212-0.217c0-2.578,0-5.156,0-7.734c0-0.209,0-0.209,0.206-0.209
		c0.779,0,1.559,0,2.338,0c0.059,0,0.116,0,0.192,0c0,1.944,0,3.872,0,5.808c1.276,0,2.534,0,3.804,0c0-4.525,0-9.051,0-13.606
		c-8.117,0-16.241,0-24.364,0c0,2.598,0,5.196,0,7.794c0.892,0.001,1.784,0.005,2.676,0.001c0.124,0,0.191,0.041,0.255,0.146
		c0.513,0.851,1.032,1.699,1.55,2.547c0.03,0.048,0.062,0.095,0.104,0.159c0.095-0.155,0.183-0.295,0.269-0.437
		C6.279,10.74,6.745,9.98,7.205,9.217c0.058-0.096,0.121-0.132,0.233-0.132c0.844,0.005,1.687,0.005,2.529,0
		c0.132,0,0.175,0.035,0.175,0.173c-0.004,2.607-0.003,5.214-0.003,7.821c0,0.048,0,0.097,0,0.159
		c-0.065,0.004-0.118,0.01-0.17,0.01c-0.799,0-1.598-0.002-2.396,0.003c-0.139,0.001-0.17-0.045-0.17-0.176
		c0.005-1.205,0.003-2.411,0.003-3.616c0-0.053,0-0.107,0-0.16c-0.01-0.004-0.021-0.009-0.03-0.014
		c-0.611,0.944-1.222,1.888-1.854,2.864c-0.629-0.973-1.239-1.916-1.849-2.859c-0.011,0.001-0.023,0.001-0.034,0.002
		c0,0.049,0,0.098,0,0.146c0,1.21-0.002,2.421,0.003,3.632c0,0.141-0.039,0.182-0.181,0.18c-0.77-0.006-1.539-0.003-2.308-0.002
		c-0.063,0-0.127,0.006-0.19,0.01c0,2.598,0,5.196,0,7.793c0.073-0.001,0.147-0.002,0.221-0.002
		C9.158,25.051,17.133,25.051,25.107,25.051z M11.051,17.05c0-2.587,0-5.175,0-7.763c0-0.198,0-0.198,0.202-0.198
		c2.19,0,4.382,0,6.572,0c0.189,0,0.19,0,0.19,0.196c0,0.632-0.003,1.264,0.003,1.896c0.001,0.13-0.038,0.167-0.167,0.166
		c-1.304-0.004-2.607-0.002-3.911-0.002c-0.193,0-0.193,0-0.194,0.191c0,0.157,0.005,0.314-0.002,0.471
		c-0.005,0.109,0.034,0.144,0.144,0.143c0.529-0.004,1.059-0.001,1.588-0.001c0.696,0,1.392,0.003,2.088-0.003
		c0.13-0.001,0.167,0.039,0.165,0.167c-0.007,0.554-0.007,1.107,0.001,1.661c0.002,0.137-0.049,0.161-0.17,0.161
		c-1.196-0.003-2.393-0.002-3.588-0.002c-0.226,0-0.226,0-0.226,0.222c0,0.152,0.008,0.304-0.003,0.456
		C13.733,14.952,13.772,15,13.929,15c1.308-0.007,2.617-0.004,3.926-0.004c0.221,0,0.221,0,0.221,0.224
		c0,0.623-0.004,1.245,0.003,1.868c0.001,0.131-0.039,0.165-0.167,0.165c-2.229-0.003-4.46-0.002-6.69-0.003
		c-0.052,0-0.105-0.006-0.17-0.01C11.051,17.167,11.051,17.108,11.051,17.05z"/>
	<path fill="#FFFFFF" d="M3.943,28.897c0-0.874,0-1.734,0-2.61c-0.194,0-0.383,0.02-0.564-0.005
		c-0.26-0.034-0.413,0.062-0.524,0.295c-0.104,0.217-0.247,0.414-0.386,0.643c-0.179-0.293-0.341-0.561-0.507-0.824
		c-0.026-0.043-0.071-0.101-0.109-0.102c-0.282-0.009-0.564-0.005-0.854-0.005c0,0.88,0,1.739,0,2.607c0.29,0,0.562,0,0.848,0
		c0-0.426,0-0.838,0-1.292c0.217,0.333,0.411,0.629,0.614,0.939c0.208-0.317,0.4-0.612,0.593-0.908
		c0.011,0.005,0.022,0.01,0.034,0.014c0,0.414,0,0.828,0,1.248C3.382,28.897,3.662,28.897,3.943,28.897z"/>
	<path fill="#FFFFFF" d="M11.884,28.91c-0.214-0.314-0.406-0.596-0.593-0.869c0.01-0.021,0.011-0.026,0.014-0.028
		c0.019-0.016,0.038-0.031,0.059-0.044c0.368-0.217,0.486-0.547,0.417-0.952c-0.063-0.371-0.309-0.577-0.659-0.667
		c-0.122-0.031-0.25-0.053-0.375-0.056c-0.406-0.008-0.813-0.006-1.22-0.007c-0.062,0-0.124,0-0.189,0c0,0.884,0,1.747,0,2.612
		c0.289,0,0.566,0,0.859,0c0-0.247,0-0.485,0-0.718c0.133-0.043,0.216-0.017,0.284,0.098c0.109,0.186,0.233,0.362,0.356,0.539
		c0.027,0.039,0.077,0.087,0.118,0.087C11.252,28.913,11.55,28.91,11.884,28.91z M10.733,27.519
		c-0.173,0.021-0.349,0.006-0.529,0.006c0-0.166,0-0.33,0-0.501c0.179,0,0.349-0.013,0.517,0.005c0.127,0.013,0.21,0.103,0.213,0.24
		C10.937,27.405,10.86,27.505,10.733,27.519z"/>
	<path fill="#FFFFFF" d="M13.008,26.282c-0.699,0.186-1.121,0.824-1.015,1.537c0.099,0.668,0.68,1.144,1.403,1.147
		c0.992,0.005,1.677-0.883,1.383-1.794C14.552,26.469,13.774,26.079,13.008,26.282z M13.409,28.204
		c-0.316,0-0.563-0.268-0.563-0.609c0-0.336,0.241-0.599,0.554-0.602c0.318-0.004,0.565,0.259,0.568,0.604
		C13.97,27.944,13.73,28.206,13.409,28.204z"/>
	<path fill="#FFFFFF" d="M20.439,27.265c-0.145-0.562-0.614-0.962-1.206-1.026c-0.621-0.068-1.203,0.223-1.469,0.733
		c-0.486,0.934,0.193,1.995,1.275,1.995C19.989,28.967,20.665,28.146,20.439,27.265z M19.047,28.205
		c-0.318-0.001-0.56-0.264-0.56-0.609c0-0.341,0.235-0.6,0.549-0.603c0.316-0.004,0.567,0.262,0.572,0.603
		C19.613,27.938,19.366,28.206,19.047,28.205z"/>
	<path fill="#FFFFFF" d="M4.278,28.911c0.23,0,0.45,0,0.669,0c0.48,0,0.96,0.001,1.44-0.004c0.046,0,0.13-0.039,0.131-0.064
		c0.011-0.208,0.006-0.417,0.006-0.641c-0.474,0-0.927,0-1.389,0c0-0.105,0-0.194,0-0.3c0.428,0,0.846,0,1.284,0
		c0-0.171-0.005-0.327,0.001-0.481c0.005-0.109-0.033-0.146-0.142-0.145c-0.318,0.006-0.637,0.002-0.955,0.001
		c-0.062,0-0.123-0.006-0.188-0.009c0-0.098,0-0.178,0-0.277c0.461,0,0.913,0,1.37,0c0-0.242,0-0.465,0-0.695
		c-0.746,0-1.482,0-2.228,0C4.278,27.169,4.278,28.032,4.278,28.911z"/>
	<path fill="#FFFFFF" d="M25.185,28.909c0.045-0.001,0.127-0.043,0.129-0.068c0.01-0.207,0.006-0.416,0.006-0.639
		c-0.477,0-0.93,0-1.389,0c0-0.105,0-0.195,0-0.301c0.429,0,0.848,0,1.282,0c0-0.173-0.006-0.328,0.002-0.484
		c0.006-0.114-0.043-0.14-0.146-0.139c-0.323,0.005-0.646,0.003-0.97,0.002c-0.057,0-0.112-0.009-0.167-0.013
		c0-0.099,0-0.179,0-0.278c0.462,0,0.914,0,1.366,0c0-0.242,0-0.465,0-0.694c-0.744,0-1.477,0-2.224,0
		c-0.006,0.031-0.012,0.05-0.012,0.068c-0.001,0.813,0,1.626-0.003,2.439c-0.001,0.099,0.048,0.11,0.127,0.11
		c0.323-0.002,0.646-0.001,0.97-0.001C24.499,28.912,24.842,28.915,25.185,28.909z"/>
	<path fill="#FFFFFF" d="M15.973,28.212c0.229-0.016,0.431-0.016,0.627-0.048c0.397-0.065,0.714-0.25,0.827-0.667
		c0.156-0.584-0.149-1.095-0.749-1.164c-0.507-0.059-1.024-0.028-1.538-0.036c-0.007,0-0.015,0.012-0.026,0.022
		c0,0.852,0,1.707,0,2.592c0.24,0,0.464-0.008,0.688,0.002c0.136,0.007,0.182-0.037,0.174-0.172
		C15.964,28.563,15.973,28.384,15.973,28.212z M16.306,26.983c0.189,0.023,0.293,0.119,0.301,0.279
		c0.008,0.156-0.091,0.267-0.273,0.307c-0.326,0.069-0.36,0.04-0.36-0.299C15.973,26.942,15.973,26.942,16.306,26.983z"/>
	<path fill="#FFFFFF" d="M9.095,26.294c-0.805,0-1.598,0-2.403,0c0,0.25,0,0.483,0,0.734c0.262,0,0.514,0,0.778,0
		c0,0.634,0,1.249,0,1.87c0.293,0,0.573,0,0.871,0c0-0.633,0-1.252,0-1.887c0.266,0,0.513,0,0.754,0
		C9.095,26.763,9.095,26.53,9.095,26.294z"/>
	<path fill="#FFFFFF" d="M22.851,28.168c-0.427,0-0.83,0-1.248,0c0-0.634,0-1.249,0-1.871c-0.291,0-0.568,0-0.854,0
		c0,0.872,0,1.735,0,2.615c0.138,0,0.265,0,0.391,0c0.524,0,1.049,0,1.573,0c0.069,0,0.141,0.009,0.139-0.099
		C22.848,28.608,22.851,28.403,22.851,28.168z"/>
	<path fill="#FFFFFF" d="M5.583,25.533c-0.047-0.011-0.094-0.017-0.152-0.026c-0.112,0.195-0.222,0.391-0.329,0.578
		c0.485,0.135,0.831-0.074,1.151-0.397C6.021,25.634,5.802,25.583,5.583,25.533z"/>
	<path fill="#FFFFFF" d="M6.021,29.94c-0.406,0-0.705,0.282-0.705,0.666c0,0.378,0.3,0.668,0.689,0.669
		c0.414,0,0.72-0.284,0.72-0.671C6.727,30.221,6.428,29.939,6.021,29.94z M6.026,31.204c-0.348,0-0.625-0.271-0.622-0.605
		s0.271-0.59,0.619-0.587c0.346,0.002,0.614,0.261,0.615,0.594C6.64,30.937,6.367,31.203,6.026,31.204z"/>
	<path fill="#FFFFFF" d="M12.288,31.101c-0.066-0.069-0.097-0.1-0.125-0.133c-0.264-0.304-0.524-0.608-0.789-0.91
		c-0.037-0.043-0.087-0.073-0.152-0.127c0,0.474,0,0.896,0,1.32c0.018,0,0.036,0.001,0.055,0.002c0-0.375,0-0.751,0-1.127
		c0.016-0.002,0.031-0.006,0.047-0.008c0.111,0.129,0.223,0.257,0.334,0.386c0.115,0.134,0.227,0.271,0.347,0.399
		c0.112,0.119,0.192,0.273,0.354,0.362c0.045-0.454,0.02-1.232-0.07-1.324C12.288,30.334,12.288,30.696,12.288,31.101z"/>
	<path fill="#FFFFFF" d="M13.909,31.056c-0.015,0.004-0.03,0.008-0.045,0.012c-0.035-0.038-0.07-0.075-0.104-0.114
		c-0.259-0.3-0.518-0.601-0.779-0.899c-0.036-0.041-0.087-0.069-0.163-0.13c0,0.464,0,0.874,0,1.284
		c0,0.027,0.011,0.055,0.017,0.082c0.022-0.014,0.046-0.028,0.068-0.042c0-0.374,0-0.749,0-1.165
		c0.145,0.166,0.257,0.297,0.368,0.426c0.115,0.133,0.226,0.271,0.348,0.398c0.111,0.117,0.186,0.277,0.345,0.35
		c0-0.441,0-0.864,0-1.287c-0.019,0-0.036-0.001-0.055-0.002C13.909,30.331,13.909,30.693,13.909,31.056z"/>
	<path fill="#FFFFFF" d="M17.126,30.002c-0.229-0.048-0.471-0.037-0.713-0.054c0,0.455,0,0.873,0,1.317
		c0.232-0.015,0.458-0.009,0.678-0.046c0.309-0.053,0.512-0.301,0.52-0.589C17.619,30.322,17.446,30.07,17.126,30.002z
		 M17.519,30.68c-0.041,0.263-0.239,0.456-0.53,0.488c-0.158,0.018-0.319,0.003-0.495,0.003c0-0.385,0-0.75,0-1.135
		c0.248-0.01,0.49-0.037,0.719,0.076C17.429,30.219,17.553,30.456,17.519,30.68z"/>
	<path fill="#FFFFFF" d="M4.689,30.669c0.209-0.064,0.309-0.183,0.3-0.361c-0.008-0.163-0.127-0.309-0.323-0.326
		C4.42,29.96,4.17,29.977,3.908,29.977c0,0.415-0.001,0.825,0.002,1.235c0,0.015,0.035,0.03,0.079,0.066
		c0-0.173-0.002-0.314,0.001-0.455c0.001-0.035,0.008-0.084,0.032-0.104c0.075-0.062,0.455-0.001,0.52,0.076
		c0.107,0.127,0.212,0.258,0.322,0.383c0.033,0.037,0.083,0.061,0.125,0.09c0.01-0.012,0.021-0.023,0.03-0.035
		c-0.143-0.172-0.286-0.343-0.437-0.523C4.628,30.692,4.657,30.679,4.689,30.669z M4.304,30.645
		c-0.314-0.005-0.314-0.005-0.314-0.321c0-0.295,0-0.297,0.292-0.294c0.122,0.001,0.245,0.005,0.364,0.023
		c0.152,0.024,0.249,0.132,0.257,0.26c0.008,0.127-0.078,0.24-0.223,0.292c-0.032,0.012-0.066,0.021-0.099,0.023
		C4.488,30.636,4.396,30.64,4.304,30.645z"/>
	<path fill="#FFFFFF" d="M8.567,30.628c0.273,0,0.537,0,0.8,0c0-0.019,0-0.037,0-0.055c-0.265,0-0.529,0-0.785,0
		c-0.015-0.045-0.023-0.059-0.023-0.072c-0.002-0.094-0.003-0.186-0.003-0.279c0-0.192,0-0.192,0.192-0.193c0.233,0,0.467,0,0.7,0
		c0-0.018,0-0.034,0-0.052c-0.322,0-0.644,0-0.973,0c0,0.424,0,0.843,0,1.259c0.338,0,0.668,0,0.999,0
		c0-0.016,0.001-0.032,0.001-0.049c-0.3,0-0.601,0-0.909,0C8.567,30.989,8.567,30.82,8.567,30.628z"/>
	<path fill="#FFFFFF" d="M18.093,30.626c0.275,0,0.539,0,0.803,0c0-0.02,0.001-0.039,0.001-0.057c-0.269,0-0.538,0-0.817,0
		c0-0.162,0.005-0.289-0.001-0.416c-0.005-0.099,0.036-0.128,0.129-0.125c0.211,0.003,0.422,0.002,0.633,0
		c0.047-0.001,0.095-0.01,0.142-0.016c-0.001-0.012-0.002-0.024-0.004-0.037c-0.319,0-0.639,0-0.975,0c0,0.427,0,0.846,0,1.26
		c0.335,0,0.66,0,0.986,0c0-0.017,0.001-0.033,0.002-0.051c-0.301,0-0.6,0-0.898,0C18.093,30.984,18.093,30.815,18.093,30.626z"/>
	<path fill="#FFFFFF" d="M24.412,31.182c0-0.192,0-0.36,0-0.549c0.274,0,0.539,0,0.804,0c0.001-0.021,0.002-0.041,0.003-0.062
		c-0.267,0-0.533,0-0.817,0c0-0.152,0.006-0.278-0.002-0.404c-0.008-0.114,0.041-0.142,0.146-0.14
		c0.21,0.006,0.421,0.003,0.631,0.002c0.044-0.001,0.086-0.01,0.13-0.016c-0.002-0.012-0.004-0.024-0.005-0.036
		c-0.322,0-0.645,0-0.971,0c0,0.428,0,0.85,0,1.27c0.476,0.034,0.913,0.017,1.007-0.064C25.012,31.182,24.714,31.182,24.412,31.182z
		"/>
	<path fill="#FFFFFF" d="M1.084,30.628c0.274,0,0.542,0,0.809,0c0-0.02,0-0.04,0-0.06c-0.271,0-0.541,0-0.806,0
		c0-0.197,0-0.36,0-0.547c0.305,0,0.598,0,0.891,0c0-0.02,0-0.038-0.001-0.058c-0.307,0-0.613-0.002-0.919,0.005
		c-0.023,0.001-0.064,0.065-0.066,0.101c-0.007,0.172-0.003,0.342-0.003,0.514c0,0.219,0,0.438,0,0.652
		c0.297,0.048,0.931,0.026,1.02-0.053c-0.323,0-0.62,0-0.925,0C1.084,30.991,1.084,30.822,1.084,30.628z"/>
	<path fill="#FFFFFF" d="M14.526,30.62c0.273,0,0.533,0,0.794,0c-0.001-0.017-0.001-0.033-0.001-0.051c-0.264,0-0.526,0-0.793,0
		c0-0.192,0-0.358,0-0.553c0.303,0,0.593,0,0.883,0c-0.016-0.041-0.032-0.052-0.05-0.052c-0.278-0.001-0.558,0.001-0.837-0.003
		c-0.094-0.002-0.1,0.054-0.1,0.123c0,0.235,0,0.471,0,0.705c0,0.15,0,0.3,0,0.445c0.309,0.048,0.936,0.026,1.025-0.051
		c-0.322,0-0.619,0-0.922,0C14.526,30.982,14.526,30.813,14.526,30.62z"/>
	<path fill="#FFFFFF" d="M9.937,30.627c0.271,0,0.535,0,0.798,0c0-0.019,0-0.037,0-0.056c-0.265,0-0.53,0-0.798,0
		c0-0.195,0-0.359,0-0.555c0.302,0,0.597,0,0.891,0c0-0.018,0-0.036-0.001-0.055c-0.287,0-0.573,0.004-0.86-0.002
		c-0.108-0.002-0.131,0.045-0.13,0.141c0.004,0.293,0.001,0.588,0.001,0.882c0,0.086,0,0.173,0,0.253c0.35,0,0.675,0,1,0
		c0-0.016,0-0.032,0.001-0.049c-0.3,0-0.6,0-0.902,0C9.937,30.989,9.937,30.82,9.937,30.627z"/>
	<path fill="#FFFFFF" d="M3.427,29.964c-0.011,0.043-0.031,0.086-0.032,0.131c-0.005,0.225,0.003,0.45-0.01,0.674
		c-0.017,0.285-0.2,0.44-0.486,0.434c-0.287-0.006-0.462-0.17-0.472-0.451c-0.008-0.22-0.002-0.44-0.007-0.66
		c-0.001-0.043-0.02-0.086-0.037-0.152c-0.034,0.04-0.051,0.051-0.05,0.062c0.003,0.282-0.011,0.567,0.018,0.849
		c0.026,0.268,0.247,0.421,0.547,0.426c0.295,0.005,0.531-0.146,0.559-0.411c0.03-0.293,0.007-0.592,0.007-0.888
		C3.451,29.972,3.439,29.968,3.427,29.964z"/>
	<path fill="#FFFFFF" d="M7.853,30.002c-0.237-0.04-0.481-0.038-0.718-0.054c-0.057,0.312-0.032,1.239,0.061,1.333
		c0-0.146,0.008-0.259-0.002-0.368c-0.011-0.126,0.04-0.156,0.159-0.156c0.174-0.002,0.354-0.007,0.521-0.049
		c0.183-0.046,0.27-0.201,0.263-0.379C8.129,30.169,8.037,30.032,7.853,30.002z M7.766,30.666c-0.182,0.021-0.368,0.005-0.57,0.005
		c0-0.193-0.004-0.373,0.004-0.554c0.001-0.03,0.055-0.083,0.085-0.083c0.156-0.004,0.314-0.003,0.468,0.016
		c0.179,0.022,0.289,0.143,0.297,0.294C8.057,30.495,7.944,30.646,7.766,30.666z"/>
	<path fill="#FFFFFF" d="M20.059,30.56c-0.003-0.197,0.009-0.396-0.008-0.594c-0.023,0.003-0.046,0.006-0.069,0.008
		c0,0.424,0,0.848,0,1.271c0.422,0.037,0.85,0.018,0.937-0.064c-0.297,0-0.569,0-0.859,0C20.059,30.958,20.06,30.759,20.059,30.56z"
		/>
	<path fill="#FFFFFF" d="M21.887,31.186c-0.031-0.427,0.015-0.823-0.027-1.215c-0.018,0.001-0.036,0.001-0.054,0.001
		c0,0.424,0,0.848,0,1.281c0.307,0.001,0.609,0.003,0.912,0c0-0.022,0-0.045,0-0.067C22.444,31.186,22.171,31.186,21.887,31.186z"/>
	<path fill="#FFFFFF" d="M23.126,29.969c-0.018,0.001-0.035,0.001-0.052,0.001c0,0.426,0,0.852,0,1.269c0.304,0,0.603,0,0.9,0
		c0.001-0.019,0.001-0.036,0.001-0.054c-0.272,0-0.545,0-0.85,0C23.126,30.763,23.126,30.366,23.126,29.969z"/>
	<path fill="#FFFFFF" d="M21.321,31.273c0-0.452,0-0.876,0-1.317C21.222,30.05,21.219,31.159,21.321,31.273z"/>
	<path fill="#FFFFFF" d="M8.973,29.795c0.008,0.011,0.015,0.022,0.023,0.032c0.071-0.05,0.141-0.101,0.234-0.167
		C9.051,29.597,9.045,29.747,8.973,29.795z"/>
</g>
</svg>
