<?xml version="1.0" encoding="utf-8"?>
<!-- Generator: Adobe Illustrator 16.0.0, SVG Export Plug-In . SVG Version: 6.00 Build 0)  -->
<!DOCTYPE svg PUBLIC "-//W3C//DTD SVG 1.1//EN" "http://www.w3.org/Graphics/SVG/1.1/DTD/svg11.dtd">
<svg version="1.1" id="Layer_1" xmlns="http://www.w3.org/2000/svg" xmlns:xlink="http://www.w3.org/1999/xlink" x="0px" y="0px"
	 width="20px" height="20px" viewBox="0 0 20 20" enable-background="new 0 0 20 20" xml:space="preserve">
<path fill="#FFFFFF" d="M10,0.529c-5.579,0-10.047,4.849-9.41,10.553c0.483,4.339,3.99,7.845,8.327,8.328
	c5.706,0.637,10.553-3.831,10.553-9.409C19.471,4.778,15.223,0.529,10,0.529 M10,20C4.109,20-0.608,14.88,0.064,8.857
	c0.511-4.581,4.213-8.282,8.792-8.793C14.88-0.608,20,4.109,20,10.001C20,15.515,15.515,20,10,20"/>
<path fill="#FFFFFF" d="M10.254,4.685c1.125,0,2.05,0.348,2.773,1.042c0.722,0.693,1.083,1.511,1.083,2.449
	c0,1.201-0.305,2.2-0.915,2.998c-0.576,0.755-1.316,1.151-2.22,1.193c-0.305,0.014-0.79-0.077-1.06-0.223
	c-0.283-0.149-0.479-0.327-0.592-0.534c-0.019-0.02-0.033,0-0.042,0.057c-0.01,0.057-0.023,0.146-0.042,0.268
	s-0.047,0.267-0.085,0.437C9.117,12.54,9.066,12.74,9,12.976c-0.065,0.234-0.149,0.469-0.253,0.703
	c-0.103,0.235-0.234,0.493-0.394,0.775c-0.16,0.281-0.343,0.553-0.549,0.814c-0.038,0.039-0.07,0.053-0.1,0.045
	c-0.027-0.01-0.042-0.033-0.042-0.07c-0.168-0.714-0.159-1.493,0.028-2.338l0.76-3.294C8.32,9.33,8.255,9.002,8.255,8.626
	c0-0.45,0.117-0.825,0.353-1.126c0.233-0.301,0.51-0.45,0.83-0.45c0.544,0,0.816,0.31,0.816,0.929c0,0.226-0.08,0.609-0.239,1.155
	c-0.16,0.544-0.259,0.881-0.297,1.012c-0.074,0.319-0.014,0.593,0.184,0.817c0.197,0.226,0.456,0.337,0.774,0.337
	c0.563,0,1.028-0.313,1.395-0.942c0.365-0.629,0.549-1.394,0.549-2.295c0-0.676-0.227-1.233-0.677-1.675
	c-0.45-0.44-1.069-0.661-1.858-0.661c-0.9,0-1.628,0.286-2.182,0.858s-0.83,1.262-0.83,2.069c0,0.469,0.141,0.863,0.423,1.182
	c0.057,0.095,0.084,0.227,0.084,0.395c0,0.17-0.043,0.324-0.127,0.465c-0.084,0.142-0.183,0.184-0.295,0.127
	C6.312,10.484,5.89,9.704,5.89,8.484c0-0.956,0.39-1.829,1.169-2.617C7.837,5.078,8.902,4.685,10.254,4.685"/>
</svg>
