<?xml version="1.0" encoding="utf-8"?>
<!-- Generator: Adobe Illustrator 16.0.0, SVG Export Plug-In . SVG Version: 6.00 Build 0)  -->
<!DOCTYPE svg PUBLIC "-//W3C//DTD SVG 1.1//EN" "http://www.w3.org/Graphics/SVG/1.1/DTD/svg11.dtd">
<svg version="1.1" id="Layer_1" xmlns="http://www.w3.org/2000/svg" xmlns:xlink="http://www.w3.org/1999/xlink" x="0px" y="0px"
	 width="841.89px" height="1190.55px" viewBox="0 0 841.89 1190.55" enable-background="new 0 0 841.89 1190.55"
	 xml:space="preserve">
<g>
	<rect x="431.325" y="127.855" fill="#A58A98" width="4.188" height="947.71"/>
	<g>
		<text transform="matrix(1 0 0 1 209.4912 138.0981)" fill="#A58A98" font-family="'Helvetica-Bold'" font-size="29.3187">Mardi 20/09</text>
	</g>
	<g>
		<text transform="matrix(1 0 0 1 500.4316 375.5522)" fill="#A58A98" font-family="'Helvetica-Bold'" font-size="29.3187">Mercredi 21/09</text>
	</g>
	<g>
		<text transform="matrix(1 0 0 1 211.1089 615.0986)" fill="#A58A98" font-family="'Helvetica-Bold'" font-size="29.3187">Jeudi 22/09</text>
	</g>
	<g>
		<g>
			<text transform="matrix(1 0 0 1 500.4316 850.4541)" fill="#A58A98" font-family="'Helvetica-Bold'" font-size="29.3187">Vendredi 23/09</text>
		</g>
		<g>
			<rect x="419.808" y="1073.474" fill="#A58A98" width="27.224" height="4.188"/>
			<circle fill="#A58A98" cx="433.419" cy="127.855" r="11.874"/>
			<circle fill="#A58A98" cx="433.419" cy="367.403" r="11.874"/>
			<circle fill="#A58A98" cx="433.419" cy="604.858" r="11.873"/>
			<circle fill="#A58A98" cx="433.419" cy="842.311" r="11.874"/>
		</g>
	</g>
	<path fill="#A58A98" d="M475.807,1013.31c-3.99,0-7.251,2.979-7.77,6.828h-34.618v2.094h34.618c0.519,3.848,3.779,6.826,7.77,6.826
		c4.349,0,7.873-3.527,7.873-7.875S480.155,1013.31,475.807,1013.31z"/>
	<g>
		<text transform="matrix(1 0 0 1 500.4326 1027.4727)" font-family="'Helvetica-Light'" font-size="27.2245">17H Sankai Juku</text>
	</g>
	<path fill="#A58A98" d="M475.807,923.479c-3.99,0-7.251,2.979-7.77,6.826h-34.618v2.096h34.618c0.519,3.848,3.779,6.824,7.77,6.824
		c4.349,0,7.873-3.523,7.873-7.873C483.68,927.007,480.155,923.479,475.807,923.479z"/>
	<g>
		<text transform="matrix(1 0 0 1 500.4326 937.6426)" font-family="'Helvetica-Light'" font-size="27.2245">15H30 The Australian Ballet</text>
	</g>
	<path fill="#A58A98" d="M475.807,418.892c-3.99,0-7.251,2.979-7.77,6.828h-34.618v2.093h34.618c0.519,3.849,3.779,6.828,7.77,6.828
		c4.349,0,7.873-3.526,7.873-7.873C483.68,422.418,480.155,418.892,475.807,418.892z"/>
	<g>
		<text transform="matrix(1 0 0 1 500.4326 433.0532)" font-family="'Helvetica-Light'" font-size="27.2245">15H The Australian Ballet</text>
	</g>
	<path fill="#A58A98" d="M475.807,507.937c-3.99,0-7.251,2.979-7.77,6.828h-34.618v2.092h34.618c0.519,3.851,3.779,6.828,7.77,6.828
		c4.349,0,7.873-3.526,7.873-7.873C483.68,511.463,480.155,507.937,475.807,507.937z"/>
	<g>
		<text transform="matrix(1 0 0 1 500.4326 522.0991)" font-family="'Helvetica-Light'" font-size="27.2245">16H30 Blaze show</text>
	</g>
	<path fill="#A58A98" d="M433.611,692.853h-34.617c-0.518-3.85-3.779-6.828-7.769-6.828c-4.348,0-7.873,3.525-7.873,7.875
		c0,4.348,3.525,7.873,7.873,7.873c3.989,0,7.251-2.979,7.769-6.828h34.617V692.853z"/>
	<g>
		<text transform="matrix(1 0 0 1 0.0098 701.7734)" font-family="'Helvetica-Light'" font-size="27.2245">15H30 Ballet d’Opéra de Lyon</text>
	</g>
	<path fill="#A58A98" d="M433.611,782.198h-34.617c-0.518-3.848-3.779-6.828-7.769-6.828c-4.348,0-7.873,3.527-7.873,7.875
		c0,4.344,3.525,7.873,7.873,7.873c3.989,0,7.251-2.979,7.769-6.826h34.617V782.198z"/>
	<g>
		<text transform="matrix(1 0 0 1 164.9336 791.1191)" font-family="'Helvetica-Light'" font-size="27.2245">17H Sankai Juku</text>
	</g>
	<path fill="#A58A98" d="M433.611,245.534h-34.617c-0.518-3.849-3.779-6.827-7.769-6.827c-4.348,0-7.873,3.526-7.873,7.874
		s3.525,7.873,7.873,7.873c3.989,0,7.251-2.977,7.769-6.826h34.617V245.534z"/>
	<g>
		<text transform="matrix(1 0 0 1 172.5024 254.4565)" font-family="'Helvetica-Light'" font-size="27.2245">16H Blaze show</text>
	</g>
	<path fill="#A58A98" d="M433.611,186.172h-34.617c-0.518-3.85-3.779-6.827-7.769-6.827c-4.348,0-7.873,3.525-7.873,7.874
		c0,4.347,3.525,7.873,7.873,7.873c3.989,0,7.251-2.977,7.769-6.826h34.617V186.172z"/>
	<g>
		<text transform="matrix(1 0 0 1 30.2832 195.0933)" font-family="'Helvetica-Light'" font-size="27.2245">15H Ballet d’Opéra de Lyon</text>
	</g>
	<rect x="417.82" y="157.588" fill="#A58A98" width="17.693" height="1.04"/>
	<rect x="417.706" y="216.569" fill="#A58A98" width="17.692" height="1.041"/>
	<rect x="417.706" y="305.044" fill="#A58A98" width="17.692" height="1.038"/>
	<rect x="417.706" y="275.553" fill="#A58A98" width="17.692" height="1.04"/>
	<rect x="417.706" y="334.536" fill="#A58A98" width="17.692" height="1.039"/>
	<rect x="417.82" y="634.015" fill="#A58A98" width="17.693" height="1.049"/>
	<rect x="417.706" y="663.696" fill="#A58A98" width="17.692" height="1.049"/>
	<rect x="417.706" y="723.056" fill="#A58A98" width="17.692" height="1.047"/>
	<rect x="417.706" y="752.741" fill="#A58A98" width="17.692" height="1.047"/>
	<rect x="417.706" y="812.104" fill="#A58A98" width="17.692" height="1.047"/>
	<rect x="431.439" y="871.468" fill="#A58A98" width="17.694" height="1.045"/>
	<rect x="431.325" y="901.149" fill="#A58A98" width="17.693" height="1.049"/>
	<rect x="431.325" y="960.507" fill="#A58A98" width="17.693" height="1.047"/>
	<rect x="431.325" y="990.192" fill="#A58A98" width="17.693" height="1.049"/>
	<rect x="431.325" y="1049.558" fill="#A58A98" width="17.693" height="1.047"/>
	<rect x="431.439" y="396.561" fill="#A58A98" width="17.694" height="1.047"/>
	<rect x="431.325" y="455.924" fill="#A58A98" width="17.693" height="1.048"/>
	<rect x="431.325" y="544.968" fill="#A58A98" width="17.693" height="1.047"/>
	<rect x="431.325" y="485.607" fill="#A58A98" width="17.693" height="1.046"/>
	<rect x="431.325" y="574.65" fill="#A58A98" width="17.693" height="1.046"/>
</g>
</svg>
