<?xml version="1.0" encoding="utf-8"?>
<!-- Generator: Adobe Illustrator 16.0.0, SVG Export Plug-In . SVG Version: 6.00 Build 0)  -->
<!DOCTYPE svg PUBLIC "-//W3C//DTD SVG 1.1//EN" "http://www.w3.org/Graphics/SVG/1.1/DTD/svg11.dtd">
<svg version="1.1" id="Layer_1" xmlns="http://www.w3.org/2000/svg" xmlns:xlink="http://www.w3.org/1999/xlink" x="0px" y="0px"
	 width="20px" height="20px" viewBox="0 0 20 20" enable-background="new 0 0 20 20" xml:space="preserve">
<path fill="#FFFFFF" d="M11.556,6.144c0.019-0.056,0.02-0.116,0.064-0.158c0.017-0.017,0.016-0.042,0.003-0.062
	c-0.009-0.014-0.025-0.007-0.036,0.002c-0.111,0.096-0.24,0.168-0.346,0.271c-0.131,0.129-0.259,0.262-0.365,0.409
	c-0.102,0.139-0.2,0.28-0.29,0.427c-0.099,0.161-0.189,0.327-0.281,0.491c-0.088,0.157-0.165,0.319-0.235,0.484
	C9.978,8.229,9.877,8.446,9.804,8.673C9.793,8.71,9.787,8.75,9.768,8.783C9.762,8.795,9.743,8.837,9.707,8.802
	C9.584,8.684,9.46,8.567,9.333,8.456C9.203,8.342,8.971,8.18,8.82,8.094C8.728,8.042,8.634,7.992,8.541,7.945
	C8.362,7.853,8.182,7.763,8.002,7.672C7.819,7.582,7.628,7.505,7.443,7.419C7.28,7.344,7.114,7.275,6.948,7.205
	c-0.185-0.08-0.372-0.158-0.56-0.231C6.25,6.921,6.118,6.856,5.976,6.814C5.928,6.802,5.879,6.786,5.838,6.76
	C5.813,6.744,5.795,6.724,5.767,6.739c-0.027,0.013-0.02,0.043-0.02,0.067c0.001,0.152,0.028,0.298,0.081,0.443
	C5.893,7.429,5.989,7.59,6.109,7.738c0.121,0.15,0.27,0.269,0.427,0.378c0.052,0.037,0.106,0.07,0.177,0.124
	C6.5,8.225,6.322,8.284,6.138,8.306c-0.07,0.008-0.097,0.03-0.081,0.112c0.036,0.193,0.116,0.36,0.234,0.517
	c0.085,0.114,0.186,0.21,0.296,0.29C6.745,9.34,6.92,9.43,7.11,9.484C7.173,9.503,7.244,9.5,7.306,9.547
	c-0.017,0.005-0.025,0.01-0.032,0.01C7.07,9.565,6.879,9.622,6.708,9.733c-0.05,0.033-0.091,0.078-0.137,0.117
	C6.549,9.87,6.547,9.888,6.565,9.916c0.08,0.125,0.166,0.249,0.273,0.348c0.196,0.179,0.433,0.29,0.692,0.349
	c0.134,0.032,0.272,0.032,0.412,0.04c-0.065,0.027-0.104,0.092-0.164,0.119c-0.08,0.036-0.124,0.107-0.163,0.169
	c-0.131,0.205-0.049,0.476,0.169,0.589c0.166,0.085,0.34,0.155,0.535,0.138c0.023-0.002,0.046,0,0.07,0
	c-0.056,0.026-0.075,0.085-0.118,0.115c-0.185,0.131-0.363,0.269-0.558,0.386c-0.2,0.122-0.409,0.223-0.627,0.297
	c-0.229,0.078-0.469,0.145-0.714,0.151c-0.28,0.01-0.562,0.026-0.838-0.058c-0.146-0.043-0.298-0.062-0.442-0.119
	c-0.189-0.072-0.372-0.152-0.55-0.252c-0.166-0.095-0.325-0.197-0.47-0.321c-0.009-0.008-0.016-0.018-0.025-0.01
	c-0.006,0.006-0.009,0.026-0.005,0.029c0.052,0.037,0.069,0.1,0.109,0.144c0.158,0.188,0.324,0.366,0.5,0.539
	c0.023,0.021,0.045,0.041,0.069,0.061c0.108,0.088,0.212,0.179,0.319,0.267c0.18,0.149,0.374,0.285,0.567,0.408
	c0.101,0.062,0.27,0.153,0.375,0.207c0.156,0.078,0.313,0.161,0.476,0.229c0.208,0.087,0.424,0.162,0.64,0.229
	c0.135,0.042,0.275,0.06,0.414,0.087c0.115,0.022,0.302,0.057,0.419,0.067c0.32,0.03,0.639,0.065,0.961,0.039
	c0.312-0.026,0.625-0.03,0.935-0.101c0.203-0.046,0.409-0.066,0.613-0.12c0.215-0.055,0.428-0.117,0.638-0.187
	c0.161-0.052,0.315-0.119,0.471-0.185c0.129-0.054,0.334-0.152,0.455-0.22c0.138-0.076,0.275-0.153,0.409-0.238
	c0.09-0.057,0.183-0.115,0.266-0.176c0.082-0.059,0.161-0.125,0.239-0.189c0.239-0.2,0.463-0.419,0.661-0.659
	c0.167-0.201,0.33-0.413,0.45-0.651c0.037-0.073,0.076-0.147,0.118-0.218c0.122-0.21,0.19-0.44,0.282-0.662
	c0.039-0.092,0.054-0.192,0.076-0.29c0.012-0.05,0.033-0.067,0.09-0.063c0.15,0.013,0.299,0.003,0.448-0.019
	c0.198-0.03,0.376-0.109,0.552-0.199c0.094-0.049,0.174-0.116,0.252-0.182c0.038-0.032,0.088-0.062,0.111-0.117
	c-0.014-0.003-0.021-0.007-0.029-0.007c-0.298,0.017-0.595,0.044-0.89-0.032c-0.104-0.026-0.21-0.048-0.315-0.069
	c-0.022-0.004-0.05-0.008-0.046-0.035c0.003-0.027,0.031-0.015,0.05-0.017c0.194-0.013,0.384-0.045,0.568-0.117
	c0.186-0.071,0.35-0.165,0.484-0.31c0.059-0.063,0.096-0.131,0.114-0.22c-0.104,0.039-0.205,0.071-0.304,0.091
	c-0.236,0.05-0.479,0.046-0.721,0.021c-0.111-0.013-0.217-0.05-0.327-0.073c-0.029-0.007-0.052-0.02-0.056-0.06
	c-0.017-0.192-0.104-0.363-0.162-0.543c-0.009-0.027-0.014-0.056-0.027-0.078c-0.102-0.171-0.181-0.355-0.298-0.519
	c-0.086-0.12-0.176-0.237-0.275-0.344c-0.125-0.134-0.27-0.25-0.421-0.357c-0.167-0.117-0.348-0.206-0.533-0.277
	c-0.156-0.061-0.329-0.081-0.493-0.125c-0.076-0.021-0.161,0.002-0.241-0.048c0.105,0,0.192-0.045,0.283-0.073
	c0.2-0.061,0.405-0.112,0.566-0.261c0.038-0.035,0.056-0.069,0.048-0.114c-0.008-0.042-0.026-0.076-0.073-0.09
	c-0.059-0.019-0.116-0.023-0.178-0.021c-0.124,0.003-0.234,0.053-0.349,0.085c-0.027,0.007-0.055,0.019-0.081,0.02
	c-0.027,0.001-0.051,0.037-0.081,0.009c0.08-0.065,0.165-0.119,0.2-0.221c0.021-0.058-0.005-0.074-0.053-0.067
	c-0.107,0.015-0.213,0.038-0.312,0.082C11.854,5.982,11.709,6.068,11.556,6.144"/>
<path fill="#FFFFFF" d="M10,0.529c-5.579,0-10.046,4.849-9.41,10.553c0.483,4.339,3.989,7.844,8.327,8.328
	c5.705,0.637,10.554-3.831,10.554-9.41C19.472,4.778,15.223,0.529,10,0.529 M10,20C4.109,20-0.607,14.88,0.064,8.857
	c0.51-4.581,4.212-8.283,8.793-8.793C14.881-0.608,20,4.11,20,10C20,15.514,15.514,20,10,20"/>
</svg>
